<svg xmlns="http://www.w3.org/2000/svg" viewBox="0 0 32 32">
  <defs>
    <!-- Simplified red gradient for small size -->
    <linearGradient id="faviconRed" x1="0%" y1="0%" x2="100%" y2="100%">
      <stop offset="0%" style="stop-color:#FF0000" />
      <stop offset="50%" style="stop-color:#DC143C" />
      <stop offset="100%" style="stop-color:#8B0000" />
    </linearGradient>
    
    <!-- Simple glow -->
    <filter id="faviconGlow">
      <feGaussianBlur stdDeviation="0.5" result="coloredBlur"/>
      <feMerge>
        <feMergeNode in="coloredBlur"/>
        <feMergeNode in="SourceGraphic"/>
      </feMerge>
    </filter>
  </defs>
  
  <!-- Background circle -->
  <circle cx="16" cy="16" r="14" fill="#1a0000" opacity="0.9"/>
  
  <!-- Simplified aperture with fewer blades for clarity -->
  <g transform="translate(16, 16)">
    <!-- 6 aperture blades instead of 8 for better visibility at small size -->
    <path d="M 0,0 L 8,-8 A 11,11 0 0,1 11,0 Z" fill="url(#faviconRed)" transform="rotate(0)"/>
    <path d="M 0,0 L 8,-8 A 11,11 0 0,1 11,0 Z" fill="url(#faviconRed)" transform="rotate(60)"/>
    <path d="M 0,0 L 8,-8 A 11,11 0 0,1 11,0 Z" fill="url(#faviconRed)" transform="rotate(120)"/>
    <path d="M 0,0 L 8,-8 A 11,11 0 0,1 11,0 Z" fill="url(#faviconRed)" transform="rotate(180)"/>
    <path d="M 0,0 L 8,-8 A 11,11 0 0,1 11,0 Z" fill="url(#faviconRed)" transform="rotate(240)"/>
    <path d="M 0,0 L 8,-8 A 11,11 0 0,1 11,0 Z" fill="url(#faviconRed)" transform="rotate(300)"/>
  </g>
  
  <!-- Center circle -->
  <circle cx="16" cy="16" r="7" fill="#0A0A0A"/>
  
  <!-- Simplified play button -->
  <polygon points="14,12 14,20 20,16" fill="#FFFFFF" filter="url(#faviconGlow)"/>
</svg>